<?xml version="1.0" encoding="utf-8"?>
<!-- Generator: Adobe Illustrator 26.0.1, SVG Export Plug-In . SVG Version: 6.00 Build 0)  -->
<svg version="1.1" id="Layer_1" xmlns="http://www.w3.org/2000/svg" xmlns:xlink="http://www.w3.org/1999/xlink" x="0px" y="0px"
	 viewBox="0 0 181 60" style="enable-background:new 0 0 181 60;" xml:space="preserve">
<style type="text/css">
	.st0{fill:#FFFFFF;}
	.st1{fill:#212121;}
	.st2{fill:#616161;}
	.st3{fill:#E31E30;}
</style>
<path class="st0" d="M0.5,10.5c0-3.3,0-4.9,0.5-6.2c0.7-1.7,2.1-3.1,3.8-3.8C6.1,0,7.7,0,11,0h159c3.3,0,4.9,0,6.2,0.5
	c1.7,0.7,3.1,2.1,3.8,3.8c0.5,1.3,0.5,2.9,0.5,6.2v39c0,3.3,0,4.9-0.5,6.2c-0.7,1.7-2.1,3.1-3.8,3.8c-1.3,0.5-2.9,0.5-6.2,0.5H11
	c-3.3,0-4.9,0-6.2-0.5c-1.7-0.7-3.1-2.1-3.8-3.8c-0.5-1.3-0.5-2.9-0.5-6.2V10.5z"/>
<path class="st1" d="M122.8,28.8v3.4h-2.2v2.3h2.2v7.7c0,2.6,1.2,3.7,4.2,3.7c0.5,0,1-0.1,1.5-0.1v-2.2c-0.4,0-0.6,0.1-1,0.1
	c-1.3,0-1.9-0.6-1.9-2v-7h2.9v-2.3h-2.9v-3.4H122.8z"/>
<path class="st1" d="M136,46c4,0,6.4-2.7,6.4-7c0-4.4-2.4-7-6.4-7c-4,0-6.4,2.7-6.4,7C129.6,43.3,132,46,136,46z M136,43.6
	c-2.3,0-3.6-1.7-3.6-4.7c0-2.9,1.3-4.7,3.6-4.7c2.3,0,3.6,1.7,3.6,4.7C139.6,41.9,138.3,43.6,136,43.6z"/>
<path class="st1" d="M144.4,45.7h2.7v-8c0-1.9,1.4-3.2,3.5-3.2c0.5,0,1.3,0.1,1.5,0.2v-2.6c-0.3-0.1-0.8-0.1-1.2-0.1
	c-1.8,0-3.3,1-3.7,2.3H147v-2.1h-2.6V45.7z"/>
<path class="st1" d="M158.7,34.2c2,0,3.3,1.4,3.3,3.5h-6.8C155.4,35.6,156.8,34.2,158.7,34.2z M162.1,42.1c-0.5,1.1-1.6,1.6-3.2,1.6
	c-2.1,0-3.5-1.5-3.6-3.9v-0.1h9.6v-0.9c0-4.3-2.3-6.8-6.1-6.8c-3.8,0-6.3,2.8-6.3,7.1s2.4,7,6.3,7c3.1,0,5.3-1.5,5.9-3.9H162.1z"/>
<path class="st1" d="M105.2,40.7c0.2,3.3,3,5.5,7.1,5.5c4.4,0,7.2-2.2,7.2-5.8c0-2.8-1.6-4.3-5.4-5.2l-2.1-0.5
	c-2.4-0.6-3.4-1.3-3.4-2.7c0-1.7,1.5-2.8,3.8-2.8c2.2,0,3.7,1.1,3.9,2.8h2.8c-0.2-3.1-2.9-5.3-6.7-5.3c-4.1,0-6.8,2.2-6.8,5.5
	c0,2.7,1.5,4.4,4.9,5.1l2.4,0.6c2.5,0.6,3.5,1.4,3.5,2.9c0,1.7-1.7,2.9-4,2.9c-2.5,0-4.2-1.1-4.5-2.9H105.2z"/>
<path class="st1" d="M77.5,32c-1.8,0-3.4,0.9-4.3,2.5H73v-2.2h-2.6v18.1h2.7v-6.6h0.2c0.7,1.4,2.2,2.3,4.2,2.3c3.4,0,5.6-2.7,5.6-7
	S81,32,77.5,32z M76.7,43.6c-2.2,0-3.6-1.8-3.6-4.6c0-2.8,1.4-4.6,3.7-4.6c2.3,0,3.6,1.7,3.6,4.6C80.4,41.8,79,43.6,76.7,43.6z"/>
<path class="st1" d="M92.5,32c-1.8,0-3.4,0.9-4.3,2.5H88v-2.2h-2.6v18.1h2.7v-6.6h0.2c0.7,1.4,2.2,2.3,4.2,2.3c3.4,0,5.6-2.7,5.6-7
	S95.9,32,92.5,32z M91.7,43.6c-2.2,0-3.6-1.8-3.6-4.6c0-2.8,1.4-4.6,3.7-4.6c2.3,0,3.6,1.7,3.6,4.6C95.4,41.8,94,43.6,91.7,43.6z"/>
<path class="st1" d="M65.7,45.7h3.1L62,27.1h-3.1l-6.7,18.6h3l1.7-4.9H64L65.7,45.7z M60.3,30.5h0.2l2.7,7.9h-5.6L60.3,30.5z"/>
<path class="st2" d="M54,13.1v9h3.2c2.7,0,4.2-1.6,4.2-4.5c0-2.8-1.6-4.5-4.2-4.5H54z M55.4,14.3h1.7c1.9,0,3,1.2,3,3.2
	c0,2.1-1.1,3.2-3,3.2h-1.7V14.3z"/>
<path class="st2" d="M66.2,22.2c2,0,3.2-1.3,3.2-3.5c0-2.2-1.2-3.5-3.2-3.5c-2,0-3.2,1.3-3.2,3.5C63,20.9,64.2,22.2,66.2,22.2z
	 M66.2,21c-1.2,0-1.8-0.9-1.8-2.3c0-1.5,0.7-2.3,1.8-2.3c1.2,0,1.8,0.9,1.8,2.3C68,20.1,67.4,21,66.2,21z"/>
<path class="st2" d="M79.7,15.3h-1.3l-1.2,5.2h-0.1l-1.4-5.2h-1.3L73,20.4h-0.1l-1.2-5.2h-1.4l1.9,6.8h1.4l1.4-5h0.1l1.4,5h1.4
	L79.7,15.3z"/>
<path class="st2" d="M81.3,22h1.3v-4c0-1.1,0.6-1.7,1.6-1.7c1,0,1.5,0.5,1.5,1.6V22H87v-4.4c0-1.6-0.8-2.5-2.3-2.5
	c-1,0-1.7,0.5-2,1.2h-0.1v-1.1h-1.3V22z"/>
<path class="st2" d="M89.1,22h1.3v-9.4h-1.3V22z"/>
<path class="st2" d="M95.5,22.2c2,0,3.2-1.3,3.2-3.5c0-2.2-1.2-3.5-3.2-3.5c-2,0-3.2,1.3-3.2,3.5C92.3,20.9,93.5,22.2,95.5,22.2z
	 M95.5,21c-1.2,0-1.8-0.9-1.8-2.3c0-1.5,0.7-2.3,1.8-2.3c1.2,0,1.8,0.9,1.8,2.3C97.3,20.1,96.7,21,95.5,21z"/>
<path class="st2" d="M102.7,21c-0.7,0-1.3-0.4-1.3-1c0-0.6,0.4-0.9,1.4-1l1.7-0.1v0.6C104.4,20.4,103.7,21,102.7,21z M102.3,22.2
	c0.9,0,1.6-0.4,2-1.1h0.1v1h1.3v-4.6c0-1.4-1-2.3-2.7-2.3c-1.5,0-2.6,0.7-2.8,1.9h1.3c0.1-0.5,0.7-0.8,1.4-0.8
	c0.9,0,1.4,0.4,1.4,1.1V18l-1.8,0.1c-1.6,0.1-2.5,0.8-2.5,2C100.1,21.4,101,22.2,102.3,22.2z"/>
<path class="st2" d="M110.3,22.2c0.9,0,1.7-0.4,2.1-1.2h0.1V22h1.3v-9.4h-1.3v3.7h-0.1c-0.4-0.7-1.2-1.2-2.1-1.2
	c-1.7,0-2.8,1.4-2.8,3.5C107.5,20.8,108.6,22.2,110.3,22.2z M110.7,16.4c1.1,0,1.8,0.9,1.8,2.3c0,1.4-0.7,2.3-1.8,2.3
	c-1.1,0-1.8-0.9-1.8-2.3C108.9,17.2,109.6,16.4,110.7,16.4z"/>
<path class="st2" d="M122.5,22.2c2,0,3.2-1.3,3.2-3.5c0-2.2-1.2-3.5-3.2-3.5c-2,0-3.2,1.3-3.2,3.5C119.3,20.9,120.5,22.2,122.5,22.2
	z M122.5,21c-1.2,0-1.8-0.9-1.8-2.3c0-1.5,0.7-2.3,1.8-2.3c1.2,0,1.8,0.9,1.8,2.3C124.3,20.1,123.7,21,122.5,21z"/>
<path class="st2" d="M127.5,22h1.3v-4c0-1.1,0.6-1.7,1.6-1.7c1,0,1.5,0.5,1.5,1.6V22h1.3v-4.4c0-1.6-0.8-2.5-2.3-2.5
	c-1,0-1.7,0.5-2,1.2h-0.1v-1.1h-1.3V22z"/>
<path class="st2" d="M139.4,13.6v1.7h-1.1v1.1h1.1v3.8c0,1.3,0.6,1.8,2.1,1.8c0.3,0,0.5,0,0.7-0.1v-1.1c-0.2,0-0.3,0-0.5,0
	c-0.7,0-1-0.3-1-1v-3.5h1.5v-1.1h-1.5v-1.7H139.4z"/>
<path class="st2" d="M144,22h1.3v-4c0-1,0.6-1.7,1.7-1.7c0.9,0,1.5,0.5,1.5,1.6v4h1.3v-4.4c0-1.6-0.9-2.5-2.3-2.5
	c-1,0-1.7,0.5-2.1,1.2h-0.1v-3.7H144V22z"/>
<path class="st2" d="M154.7,16.3c1,0,1.6,0.7,1.7,1.8h-3.4C153,17,153.7,16.3,154.7,16.3z M156.3,20.2c-0.2,0.5-0.8,0.8-1.6,0.8
	c-1.1,0-1.8-0.8-1.8-1.9V19h4.8v-0.5c0-2.1-1.1-3.4-3-3.4c-1.9,0-3.1,1.4-3.1,3.5s1.2,3.5,3.1,3.5c1.6,0,2.6-0.7,2.9-2H156.3z"/>
<path class="st3" d="M37.7,30.5c0-2.5,1.4-4.9,3.5-6.2c-1.4-1.9-3.6-3.2-6-3.2c-2.5-0.3-5,1.5-6.2,1.5c-1.3,0-3.3-1.5-5.4-1.4
	c-2.8,0.1-5.4,1.7-6.7,4.1c-2.9,5-0.7,12.4,2,16.5c1.4,2,3,4.2,5.1,4.1c2.1-0.1,2.9-1.3,5.4-1.3c2.5,0,3.2,1.3,5.4,1.3
	c2.2,0,3.6-2,5-4c1-1.4,1.8-3,2.3-4.6C39.4,35.9,37.7,33.3,37.7,30.5z"/>
<path class="st3" d="M31.6,18.3c0.7-1.5,1.1-3.3,1-5.2c-1.1,0.2-2.1,1.1-2.9,2.5c-0.7,1.4-1.1,3.2-1,5
	C29.8,20.6,30.9,19.8,31.6,18.3z"/>
</svg>
