<?xml version="1.0" encoding="utf-8"?>
<!-- Generator: Adobe Illustrator 26.0.1, SVG Export Plug-In . SVG Version: 6.00 Build 0)  -->
<svg version="1.1" id="Layer_1" xmlns="http://www.w3.org/2000/svg" xmlns:xlink="http://www.w3.org/1999/xlink" x="0px" y="0px"
	 viewBox="0 0 203 60" style="enable-background:new 0 0 203 60;" xml:space="preserve">
<style type="text/css">
	.st0{fill:#FFFFFF;}
	.st1{fill:#212121;}
	.st2{fill:#616161;}
	.st3{fill:none;stroke:#212121;stroke-width:0.2;stroke-miterlimit:10;}
	.st4{fill-rule:evenodd;clip-rule:evenodd;fill:#E31E30;}
</style>
<path class="st0" d="M0,5c0-2.8,2.2-5,5-5h192.5c2.8,0,5,2.2,5,5v50c0,2.8-2.2,5-5,5H5c-2.8,0-5-2.2-5-5V5z"/>
<path class="st1" d="M102.2,32.6c-3.5,0-6.4,2.7-6.4,6.4c0,3.7,2.9,6.4,6.4,6.4c3.5,0,6.4-2.7,6.4-6.4
	C108.6,35.3,105.7,32.6,102.2,32.6z M102.2,42.9c-1.9,0-3.6-1.6-3.6-3.9c0-2.3,1.7-3.9,3.6-3.9c1.9,0,3.6,1.6,3.6,3.9
	C105.8,41.3,104.1,42.9,102.2,42.9z M88.2,32.6c-3.5,0-6.4,2.7-6.4,6.4c0,3.7,2.9,6.4,6.4,6.4c3.5,0,6.4-2.7,6.4-6.4
	C94.6,35.3,91.8,32.6,88.2,32.6z M88.2,42.9c-1.9,0-3.6-1.6-3.6-3.9c0-2.3,1.7-3.9,3.6-3.9c1.9,0,3.6,1.6,3.6,3.9
	C91.8,41.3,90.2,42.9,88.2,42.9z M71.6,34.6v2.7h6.5c-0.2,1.5-0.7,2.6-1.5,3.4c-0.9,0.9-2.4,2-5,2c-4,0-7.1-3.2-7.1-7.2
	s3.1-7.2,7.1-7.2c2.2,0,3.7,0.8,4.9,1.9l1.9-1.9c-1.6-1.5-3.8-2.7-6.8-2.7c-5.5,0-10.1,4.4-10.1,9.9s4.6,9.9,10.1,9.9
	c2.9,0,5.2-1,6.9-2.8c1.8-1.8,2.3-4.3,2.3-6.3c0-0.6,0-1.2-0.1-1.7L71.6,34.6L71.6,34.6z M139.6,36.7c-0.5-1.4-2.2-4.1-5.5-4.1
	c-3.3,0-6,2.6-6,6.4c0,3.6,2.7,6.4,6.3,6.4c2.9,0,4.6-1.8,5.3-2.8l-2.2-1.5c-0.7,1.1-1.7,1.8-3.1,1.8c-1.4,0-2.4-0.7-3.1-1.9
	l8.5-3.5L139.6,36.7z M130.9,38.8c-0.1-2.5,1.9-3.7,3.3-3.7c1.1,0,2.1,0.6,2.4,1.4L130.9,38.8z M123.9,45h2.8V26.2h-2.8V45z
	 M119.3,34.1L119.3,34.1c-0.7-0.8-1.9-1.4-3.5-1.4c-3.2,0-6.1,2.8-6.1,6.4c0,3.6,2.9,6.4,6.1,6.4c1.5,0,2.7-0.7,3.4-1.4h0.1v0.9
	c0,2.4-1.3,3.7-3.4,3.7c-1.7,0-2.8-1.2-3.2-2.3l-2.4,1c0.7,1.7,2.6,3.8,5.7,3.8c3.3,0,6.1-1.9,6.1-6.6V33h-2.7L119.3,34.1
	L119.3,34.1z M116.1,42.9c-1.9,0-3.6-1.6-3.6-3.8c0-2.2,1.6-3.9,3.6-3.9c1.9,0,3.4,1.6,3.4,3.9C119.5,41.3,118,42.9,116.1,42.9z
	 M152.7,26.2H146V45h2.8v-7.1h3.9c3.1,0,6.2-2.2,6.2-5.8S155.8,26.2,152.7,26.2z M152.8,35.3h-4v-6.4h4c2.1,0,3.3,1.7,3.3,3.2
	C156.1,33.5,154.9,35.3,152.8,35.3z M170.1,32.6c-2,0-4.1,0.9-5,2.9l2.5,1c0.5-1,1.5-1.4,2.6-1.4c1.4,0,2.9,0.9,2.9,2.4v0.2
	c-0.5-0.3-1.6-0.7-2.9-0.7c-2.7,0-5.4,1.5-5.4,4.2c0,2.5,2.2,4.1,4.7,4.1c1.9,0,2.9-0.8,3.6-1.8h0.1V45h2.7v-7.2
	C175.8,34.5,173.3,32.6,170.1,32.6z M169.7,42.9c-0.9,0-2.2-0.5-2.2-1.6c0-1.4,1.6-2,3-2c1.2,0,1.8,0.3,2.6,0.6
	C172.9,41.6,171.4,42.9,169.7,42.9z M185.6,33l-3.2,8.1h-0.1L179,33h-3l5,11.4l-2.8,6.3h2.9l7.7-17.7H185.6z M160.4,45h2.8V26.2
	h-2.8V45z"/>
<path class="st2" d="M71.1,15.4c0,1.3-0.4,2.3-1.1,3c-0.8,0.9-1.9,1.3-3.3,1.3c-1.3,0-2.4-0.4-3.3-1.3c-0.9-0.9-1.4-2-1.4-3.3
	c0-1.3,0.5-2.4,1.4-3.3c0.9-0.9,2-1.4,3.3-1.4c0.6,0,1.3,0.1,1.8,0.4c0.6,0.3,1.1,0.6,1.4,1l-0.8,0.8c-0.6-0.7-1.4-1.1-2.5-1.1
	c-0.9,0-1.8,0.3-2.5,1c-0.7,0.7-1,1.5-1,2.6s0.3,1.9,1,2.6s1.5,1,2.5,1c1,0,1.8-0.3,2.5-1c0.4-0.4,0.7-1,0.8-1.8h-3.3v-1.1h4.4
	C71.1,14.9,71.1,15.1,71.1,15.4z"/>
<path class="st2" d="M78,11.6h-4.1v2.9h3.7v1.1h-3.7v2.9H78v1.1h-5.3v-9H78V11.6z"/>
<path class="st2" d="M82.9,19.5h-1.2v-7.9h-2.5v-1.1h6.2v1.1h-2.5V19.5z"/>
<path class="st2" d="M89.9,19.5v-9h1.2v9H89.9z"/>
<path class="st2" d="M96.2,19.5H95v-7.9h-2.5v-1.1h6.2v1.1h-2.5V19.5z"/>
<path class="st2" d="M110.4,18.3c-0.9,0.9-2,1.4-3.3,1.4c-1.3,0-2.4-0.5-3.3-1.4c-0.9-0.9-1.3-2-1.3-3.3s0.4-2.4,1.3-3.3
	c0.9-0.9,2-1.4,3.3-1.4c1.3,0,2.4,0.5,3.3,1.4s1.3,2,1.3,3.3C111.7,16.3,111.3,17.4,110.4,18.3z M104.7,17.6c0.7,0.7,1.5,1,2.4,1
	c1,0,1.8-0.3,2.4-1c0.7-0.7,1-1.5,1-2.6s-0.3-1.9-1-2.6c-0.7-0.7-1.5-1-2.4-1c-1,0-1.8,0.3-2.4,1c-0.7,0.7-1,1.5-1,2.6
	S104,16.9,104.7,17.6z"/>
<path class="st2" d="M113.4,19.5v-9h1.4l4.4,7h0.1l-0.1-1.7v-5.3h1.2v9h-1.2l-4.6-7.3h0l0,1.7v5.6H113.4z"/>
<path class="st3" d="M71.1,15.4c0,1.3-0.4,2.3-1.1,3c-0.8,0.9-1.9,1.3-3.3,1.3c-1.3,0-2.4-0.4-3.3-1.3c-0.9-0.9-1.4-2-1.4-3.3
	c0-1.3,0.5-2.4,1.4-3.3c0.9-0.9,2-1.4,3.3-1.4c0.6,0,1.3,0.1,1.8,0.4c0.6,0.3,1.1,0.6,1.4,1l-0.8,0.8c-0.6-0.7-1.4-1.1-2.5-1.1
	c-0.9,0-1.8,0.3-2.5,1c-0.7,0.7-1,1.5-1,2.6s0.3,1.9,1,2.6s1.5,1,2.5,1c1,0,1.8-0.3,2.5-1c0.4-0.4,0.7-1,0.8-1.8h-3.3v-1.1h4.4
	C71.1,14.9,71.1,15.1,71.1,15.4z"/>
<path class="st3" d="M78,11.6h-4.1v2.9h3.7v1.1h-3.7v2.9H78v1.1h-5.3v-9H78V11.6z"/>
<path class="st3" d="M82.9,19.5h-1.2v-7.9h-2.5v-1.1h6.2v1.1h-2.5V19.5z"/>
<path class="st3" d="M89.9,19.5v-9h1.2v9H89.9z"/>
<path class="st3" d="M96.2,19.5H95v-7.9h-2.5v-1.1h6.2v1.1h-2.5V19.5z"/>
<path class="st3" d="M110.4,18.3c-0.9,0.9-2,1.4-3.3,1.4c-1.3,0-2.4-0.5-3.3-1.4c-0.9-0.9-1.3-2-1.3-3.3s0.4-2.4,1.3-3.3
	c0.9-0.9,2-1.4,3.3-1.4c1.3,0,2.4,0.5,3.3,1.4s1.3,2,1.3,3.3C111.7,16.3,111.3,17.4,110.4,18.3z M104.7,17.6c0.7,0.7,1.5,1,2.4,1
	c1,0,1.8-0.3,2.4-1c0.7-0.7,1-1.5,1-2.6s-0.3-1.9-1-2.6c-0.7-0.7-1.5-1-2.4-1c-1,0-1.8,0.3-2.4,1c-0.7,0.7-1,1.5-1,2.6
	S104,16.9,104.7,17.6z"/>
<path class="st3" d="M113.4,19.5v-9h1.4l4.4,7h0.1l-0.1-1.7v-5.3h1.2v9h-1.2l-4.6-7.3h0l0,1.7v5.6H113.4z"/>
<path class="st4" d="M15.4,11.7c-0.3,0.4-0.4,1-0.4,1.7v33.2c0,0.7,0.1,1.3,0.4,1.7L33.6,30L15.4,11.7z M16,49
	c0.7,0.4,1.7,0.4,2.7-0.2l21.5-12.2l-5.9-5.9L16,49z M41.1,36.1l6.9-3.9c2.1-1.2,2.1-3.1,0-4.3l-6.9-3.9L35.1,30L41.1,36.1z
	 M40.2,23.4L18.8,11.2c-1.1-0.6-2-0.6-2.7-0.2l18.3,18.3L40.2,23.4z"/>
</svg>
